<svg xmlns="http://www.w3.org/2000/svg" viewBox="0 0 20 20" fill="none">
<rect x="2" y="2" width="16" height="16" fill="white"/>
<path fill-rule="evenodd" clip-rule="evenodd" d="M4 0C1.79086 0 0 1.79086 0 4V16C0 18.2091 1.79086 20 4 20H16C18.2091 20 20 18.2091 20 16V4C20 1.79086 18.2091 0 16 0H4ZM3.00003 11.0297C3.00003 12.5838 3.49451 13.9916 4.33241 15.1594L7.68111 9.71177L8.9061 11.7764L8.59985 10.2387L10 7.82262L12.3189 11.8207L11.969 10.283L12.3189 9.71177L15.6676 15.1594C16.5059 13.9916 17 12.5838 17 11.0297C17 7.11649 13.8661 4.00003 10 4.00003C9.08004 3.99743 8.16862 4.17748 7.31818 4.52984C6.46773 4.88219 5.69503 5.3999 5.04451 6.05318C4.39398 6.70646 3.87847 7.48244 3.5276 8.33649C3.17673 9.19054 2.99744 10.1058 3.00003 11.0297Z" fill="#00CFB6"/>
</svg>